HIERARCHY
ROOT Hips
{
  OFFSET 5.80788e-005 67.184 3.4734
  CHANNELS 6 Xposition Yposition Zposition Zrotation Xrotation Yrotation
  JOINT Chest
  {
    OFFSET 0 8.7983 -4.7612
    CHANNELS 3 Zrotation Xrotation Yrotation
    JOINT Chest2
    {
      OFFSET 0 8.0291 0.4195
      CHANNELS 3 Zrotation Xrotation Yrotation
      JOINT Chest3
      {
        OFFSET 0 9.9351 -2.2114
        CHANNELS 3 Zrotation Xrotation Yrotation
        JOINT Neck
        {
          OFFSET 0 22.3885 -0.4656
          CHANNELS 3 Zrotation Xrotation Yrotation
          JOINT Head
          {
            OFFSET -0.0001 12.643 3.4389
            CHANNELS 3 Zrotation Xrotation Yrotation
            End Site
            {
              OFFSET 0.0001 17.6655 0.5274
            }
          }
        }
        JOINT LeftCollar
        {
          OFFSET 2.2603 21.606 7.4023
          CHANNELS 3 Zrotation Xrotation Yrotation
          JOINT LeftShoulder
          {
            OFFSET 13.5163 -1.1332 -5.0146
            CHANNELS 3 Zrotation Xrotation Yrotation
            JOINT LeftElbow
            {
              OFFSET -0.0995 -28.05 -0.2431
              CHANNELS 3 Zrotation Xrotation Yrotation
              JOINT LeftWrist
              {
                OFFSET 0.0679 -23.3996 -0.1402
                CHANNELS 3 Zrotation Xrotation Yrotation
                JOINT LeftFinger1
                {
                  OFFSET 0.7932 -9.069 2.5189
                  CHANNELS 3 Zrotation Xrotation Yrotation
                  JOINT LeftFinger11
                  {
                    OFFSET -0.8272 -3.3923 0.5977
                    CHANNELS 3 Zrotation Xrotation Yrotation
                    JOINT LeftFinger12
                    {
                      OFFSET -0.5649 -2.3158 0.4082
                      CHANNELS 3 Zrotation Xrotation Yrotation
                      End Site
                      {
                        OFFSET -0.4919 -1.6479 0.2673
                      }
                    }
                  }
                }
                JOINT LeftFinger2
                {
                  OFFSET 0.9159 -9.2044 0.2193
                  CHANNELS 3 Zrotation Xrotation Yrotation
                  JOINT LeftFinger21
                  {
                    OFFSET 0.0117 -4.1944 -0.0248
                    CHANNELS 3 Zrotation Xrotation Yrotation
                    JOINT LeftFinger22
                    {
                      OFFSET 0.0071 -2.3249 -0.0142
                      CHANNELS 3 Zrotation Xrotation Yrotation
                      End Site
                      {
                        OFFSET -0.1475 -2.0882 0.0028
                      }
                    }
                  }
                }
                JOINT LeftFinger3
                {
                  OFFSET 0.6113 -8.7231 -2.0637
                  CHANNELS 3 Zrotation Xrotation Yrotation
                  JOINT LeftFinger31
                  {
                    OFFSET -0.1927 -3.8059 -0.2383
                    CHANNELS 3 Zrotation Xrotation Yrotation
                    JOINT LeftFinger32
                    {
                      OFFSET -0.1091 -2.1688 -0.1362
                      CHANNELS 3 Zrotation Xrotation Yrotation
                      End Site
                      {
                        OFFSET -0.2358 -1.9176 -0.0906
                      }
                    }
                  }
                }
                JOINT LeftFinger4
                {
                  OFFSET -0.6151 -8.0947 -3.5641
                  CHANNELS 3 Zrotation Xrotation Yrotation
                  JOINT LeftFinger41
                  {
                    OFFSET -0.4882 -2.341 -0.6462
                    CHANNELS 3 Zrotation Xrotation Yrotation
                    JOINT LeftFinger42
                    {
                      OFFSET -0.3575 -1.7167 -0.4742
                      CHANNELS 3 Zrotation Xrotation Yrotation
                      End Site
                      {
                        OFFSET -0.4187 -1.5237 -0.3496
                      }
                    }
                  }
                }
                JOINT LeftFinger0
                {
                  OFFSET -1.42 -1.8761 1.4223
                  CHANNELS 3 Zrotation Xrotation Yrotation
                  JOINT LeftFinger01
                  {
                    OFFSET -1.1471 -3.4929 2.6334
                    CHANNELS 3 Zrotation Xrotation Yrotation
                    JOINT LeftFinger02
                    {
                      OFFSET -0.823 -2.3 1.6571
                      CHANNELS 3 Zrotation Xrotation Yrotation
                      End Site
                      {
                        OFFSET -0.5822 -1.6914 1.1582
                      }
                    }
                  }
                }
              }
            }
          }
        }
        JOINT RightCollar
        {
          OFFSET -2.2603 21.606 7.4023
          CHANNELS 3 Zrotation Xrotation Yrotation
          JOINT RightShoulder
          {
            OFFSET -13.5187 -1.1334 -5.0155
            CHANNELS 3 Zrotation Xrotation Yrotation
            JOINT RightElbow
            {
              OFFSET 0.0994 -28.0499 -0.2431
              CHANNELS 3 Zrotation Xrotation Yrotation
              JOINT RightWrist
              {
                OFFSET -0.0679 -23.3996 -0.1402
                CHANNELS 3 Zrotation Xrotation Yrotation
                JOINT RightFinger1
                {
                  OFFSET -0.7932 -9.0691 2.5189
                  CHANNELS 3 Zrotation Xrotation Yrotation
                  JOINT RightFinger11
                  {
                    OFFSET 0.8272 -3.3923 0.5977
                    CHANNELS 3 Zrotation Xrotation Yrotation
                    JOINT RightFinger12
                    {
                      OFFSET 0.565 -2.3158 0.4082
                      CHANNELS 3 Zrotation Xrotation Yrotation
                      End Site
                      {
                        OFFSET 0.4919 -1.6479 0.2673
                      }
                    }
                  }
                }
                JOINT RightFinger2
                {
                  OFFSET -0.916 -9.2044 0.2193
                  CHANNELS 3 Zrotation Xrotation Yrotation
                  JOINT RightFinger21
                  {
                    OFFSET -0.0117 -4.1944 -0.0248
                    CHANNELS 3 Zrotation Xrotation Yrotation
                    JOINT RightFinger22
                    {
                      OFFSET -0.0071 -2.3249 -0.0142
                      CHANNELS 3 Zrotation Xrotation Yrotation
                      End Site
                      {
                        OFFSET 0.1475 -2.0882 0.0028
                      }
                    }
                  }
                }
                JOINT RightFinger3
                {
                  OFFSET -0.6113 -8.7231 -2.0637
                  CHANNELS 3 Zrotation Xrotation Yrotation
                  JOINT RightFinger31
                  {
                    OFFSET 0.1927 -3.8059 -0.2383
                    CHANNELS 3 Zrotation Xrotation Yrotation
                    JOINT RightFinger32
                    {
                      OFFSET 0.1091 -2.1688 -0.1362
                      CHANNELS 3 Zrotation Xrotation Yrotation
                      End Site
                      {
                        OFFSET 0.2358 -1.9176 -0.0906
                      }
                    }
                  }
                }
                JOINT RightFinger4
                {
                  OFFSET 0.6151 -8.0947 -3.564
                  CHANNELS 3 Zrotation Xrotation Yrotation
                  JOINT RightFinger41
                  {
                    OFFSET 0.4882 -2.341 -0.6462
                    CHANNELS 3 Zrotation Xrotation Yrotation
                    JOINT RightFinger42
                    {
                      OFFSET 0.3574 -1.7166 -0.4742
                      CHANNELS 3 Zrotation Xrotation Yrotation
                      End Site
                      {
                        OFFSET 0.4187 -1.5237 -0.3496
                      }
                    }
                  }
                }
                JOINT RightFinger0
                {
                  OFFSET 1.4199 -1.8761 1.4221
                  CHANNELS 3 Zrotation Xrotation Yrotation
                  JOINT RightFinger01
                  {
                    OFFSET 1.1472 -3.4929 2.6336
                    CHANNELS 3 Zrotation Xrotation Yrotation
                    JOINT RightFinger02
                    {
                      OFFSET 0.8229 -2.3 1.6571
                      CHANNELS 3 Zrotation Xrotation Yrotation
                      End Site
                      {
                        OFFSET 0.5822 -1.6914 1.1582
                      }
                    }
                  }
                }
              }
            }
          }
        }
      }
    }
  }
  JOINT RightHip
  {
    OFFSET -9.412 3.9771 -0.7758
    CHANNELS 3 Zrotation Xrotation Yrotation
    JOINT RightKnee
    {
      OFFSET -0.7531 -40.938 0
      CHANNELS 3 Zrotation Xrotation Yrotation
      JOINT RightAnkle
      {
        OFFSET 0 -40.1986 0
        CHANNELS 3 Zrotation Xrotation Yrotation
        JOINT RightToe
        {
          OFFSET 0 -4.4182 9.239
          CHANNELS 3 Zrotation Xrotation Yrotation
          End Site
          {
            OFFSET 0 0 6.1981
          }
        }
      }
    }
  }
  JOINT LeftHip
  {
    OFFSET 9.4119 3.9773 -0.7758
    CHANNELS 3 Zrotation Xrotation Yrotation
    JOINT LeftKnee
    {
      OFFSET 0.7532 -40.9383 0
      CHANNELS 3 Zrotation Xrotation Yrotation
      JOINT LeftAnkle
      {
        OFFSET 0 -40.1986 0
        CHANNELS 3 Zrotation Xrotation Yrotation
        JOINT LeftToe
        {
          OFFSET 0 -4.4182 9.239
          CHANNELS 3 Zrotation Xrotation Yrotation
          End Site
          {
            OFFSET 0 0 6.1981
          }
        }
      }
    }
  }
}
MOTION
Frames:	4
Frame Time:	0.0333333
5.80788e-005 67.184 3.4734 0 0 -0 0 0 -0 0 0 -0 0 0 -0 0 0 -0 0 0 -0 0 0 -12.5014 88.1196 14.2451 10.6914 -0.00160068 -0.00239207 0.000740045 -8.4365e-005 7.00714e-005 -9.52055e-007 9.93923e-017 -1.98785e-016 -1.59028e-015 9.93923e-017 -5.96354e-016 -1.59028e-015 -9.93923e-017 -5.96354e-016 -1.59028e-015 9.93923e-017 -1.98785e-016 -1.59028e-015 -0.0128176 0.00232552 8.52707e-005 9.93923e-017 5.96354e-016 -0 9.93923e-017 -1.98785e-016 -1.59028e-015 -0.0160551 0.00299681 0.000857156 -2.48481e-016 0 3.18055e-015 9.93923e-017 -1.98785e-016 -1.59028e-015 -0.0125865 0.0031206 0.00282719 0 1.98785e-016 -0 9.93923e-017 -1.98785e-016 -1.59028e-015 9.93923e-017 -5.96354e-016 -1.59028e-015 -9.93923e-017 -5.96354e-016 -1.59028e-015 -0.865644 0.16582 7.03859 -88.0329 10.2057 -10.5567 0.0015593 -0.00248883 -0.000788628 7.87605e-005 4.10553e-005 1.24965e-005 -3.97569e-016 -7.95139e-016 3.18055e-015 -1.98785e-016 -3.97569e-016 3.18055e-015 -1.98785e-016 0 3.18055e-015 -3.97569e-016 -7.95139e-016 3.18055e-015 0.0129473 0.00231697 -8.70038e-005 9.93923e-017 -7.95139e-016 1.59028e-015 -3.97569e-016 -7.95139e-016 3.18055e-015 0.0163314 0.00303369 -0.000872333 3.97569e-016 7.95139e-016 -3.18055e-015 -3.97569e-016 -7.95139e-016 3.18055e-015 0.0145763 0.00367772 -0.00326275 9.93923e-017 -3.97569e-016 -0 -3.97569e-016 -7.95139e-016 3.18055e-015 -1.98785e-016 -3.97569e-016 3.18055e-015 -1.98785e-016 0 3.18055e-015 3.42485 1.36937 -0.0640303 0.000136572 0.69354 0.00145564 -3.42573 -2.06297 -0.0607933 -3.19502e-024 0 -1.48106e-024 -3.42498 1.36123 0.0639712 -6.769e-005 0.712612 -0.0012277 3.42582 -2.07388 0.0612819 2.55305e-023 0 -2.31416e-026 
-11.1249 2.67741 4.47353 -120.283 -89.9993 -0.281832 5.34038 -1.40375 3.35137 10.7575 -2.48712 6.82129 10.7576 -2.48713 6.82134 -10.7798 15.9176 -16.9156 23.6189 -6.97483 34.3673 -21.517 -1.8276 15.9542 67.3543 -42.3194 152.123 -101.645 -22.0141 -74.1415 -16.0239 -5.03728 -5.37458 1.98785e-015 1.59028e-015 2.38542e-015 1.19271e-015 1.59028e-015 1.88845e-015 1.59028e-015 1.59028e-015 7.95139e-016 1.98785e-015 1.59028e-015 2.38542e-015 -0.0128117 0.00231515 8.10061e-005 -3.97569e-016 0 -5.96354e-016 1.98785e-015 1.59028e-015 2.38542e-015 -0.0161042 0.00299803 0.000862541 -6.75868e-015 1.59028e-015 -2.51463e-014 1.98785e-015 1.59028e-015 2.38542e-015 -0.0126001 0.00312073 0.00283123 -3.97569e-016 -3.18055e-015 -3.97569e-016 1.98785e-015 1.59028e-015 2.38542e-015 1.19271e-015 1.59028e-015 1.88845e-015 1.59028e-015 1.59028e-015 7.95139e-016 -4.33348 1.10422 37.4543 -91.5047 -16.1525 -4.8336 -94.9757 -68.0584 -138.061 6.87342 1.25101 0.312313 3.18055e-015 0 3.18055e-015 6.36111e-015 0 9.54166e-015 0 0 -0 3.18055e-015 0 3.18055e-015 0.0129426 0.00232457 -8.39791e-005 -2.33842e-006 -5.51246e-006 -1.62563e-006 3.18055e-015 0 3.18055e-015 0.0163477 0.00302493 -0.000862813 6.36111e-015 -9.54166e-015 -3.18055e-015 3.18055e-015 0 3.18055e-015 0.0145983 0.00368441 -0.00326747 -3.59332e-006 2.44294e-006 3.2579e-006 3.18055e-015 0 3.18055e-015 6.36111e-015 0 9.54166e-015 0 0 -0 -54.2584 -12.8965 -69.5543 129.097 47.6337 -89.5446 15.3881 61.8434 -23.9428 -4.24289e-006 -4.31048e-006 -2.28901e-006 -4.32694 -22.7562 -1.83381 -6.38399 25.3689 11.1954 80.2647 19.7858 -90.6163 2.36111e-007 -3.02603e-008 8.05412e-007 
-11.1249 2.67741 4.47353 -120.283 -89.9993 -0.281832 5.34038 -1.40375 3.35137 10.7575 -2.48712 6.82129 10.7576 -2.48713 6.82134 -10.5188 15.9255 -16.9727 23.6189 -6.97483 34.3672 -21.517 -1.8276 15.9542 67.3543 -42.3194 152.123 -101.645 -22.0141 -74.1415 -16.0239 -5.03728 -5.37458 1.98785e-015 1.59028e-015 2.38542e-015 1.19271e-015 1.59028e-015 1.88845e-015 1.59028e-015 1.59028e-015 7.95139e-016 1.98785e-015 1.59028e-015 2.38542e-015 -0.0128117 0.00231515 8.10061e-005 -3.97569e-016 0 -5.96354e-016 1.98785e-015 1.59028e-015 2.38542e-015 -0.0161042 0.00299803 0.000862541 -6.75868e-015 1.59028e-015 -2.51463e-014 1.98785e-015 1.59028e-015 2.38542e-015 -0.0126001 0.00312073 0.00283123 -3.97569e-016 -3.18055e-015 -3.97569e-016 1.98785e-015 1.59028e-015 2.38542e-015 1.19271e-015 1.59028e-015 1.88845e-015 1.59028e-015 1.59028e-015 7.95139e-016 -4.33348 1.10422 37.4543 -90.5346 -14.842 -4.3785 -97.8632 -68.3214 -140.833 5.75573 1.04508 0.271697 -9.54166e-015 1.59028e-014 2.22639e-014 -6.36111e-015 1.27222e-014 1.90833e-014 -1.59028e-014 6.36111e-015 2.22639e-014 -9.54166e-015 1.59028e-014 2.22639e-014 0.0129327 0.00231174 -8.48437e-005 7.06225e-031 3.18055e-015 -1.27222e-014 -9.54166e-015 1.59028e-014 2.22639e-014 0.0163097 0.00303905 -0.000869219 3.18055e-015 -1.27222e-014 3.18055e-015 -9.54166e-015 1.59028e-014 2.22639e-014 0.0145747 0.00368101 -0.00326066 -4.16172e-006 -2.3145e-006 -2.64156e-006 -9.54166e-015 1.59028e-014 2.22639e-014 -6.36111e-015 1.27222e-014 1.90833e-014 -1.59028e-014 6.36111e-015 2.22639e-014 -54.2584 -12.8966 -69.5543 129.097 47.6337 -89.5447 15.388 61.8433 -23.9427 1.24726e-006 -4.08831e-006 -2.55197e-006 -4.32694 -22.7562 -1.83381 -6.38397 25.3689 11.1954 80.2647 19.7859 -90.6163 1.19271e-015 0 -3.18055e-015 
-11.1249 2.67741 4.47353 -120.283 -89.9993 -0.281832 5.34038 -1.40375 3.35137 10.7575 -2.48712 6.82129 10.7576 -2.48713 6.82134 -10.2577 15.9332 -17.0299 23.6189 -6.97484 34.3673 -21.517 -1.8276 15.9542 67.3543 -42.3194 152.123 -101.645 -22.0141 -74.1415 -16.0239 -5.03728 -5.37458 1.98785e-015 1.59028e-015 2.38542e-015 1.19271e-015 1.59028e-015 1.88845e-015 1.59028e-015 1.59028e-015 7.95139e-016 1.98785e-015 1.59028e-015 2.38542e-015 -0.0128117 0.00231515 8.10061e-005 -3.97569e-016 0 -5.96354e-016 1.98785e-015 1.59028e-015 2.38542e-015 -0.0161042 0.00299803 0.000862541 -6.75868e-015 1.59028e-015 -2.51463e-014 1.98785e-015 1.59028e-015 2.38542e-015 -0.0126001 0.00312073 0.00283123 -3.97569e-016 -3.18055e-015 -3.97569e-016 1.98785e-015 1.59028e-015 2.38542e-015 1.19271e-015 1.59028e-015 1.88845e-015 1.59028e-015 1.59028e-015 7.95139e-016 -4.33348 1.10422 37.4543 -89.5725 -13.5135 -3.94535 -100.827 -68.5327 -143.681 4.632 0.838942 0.226865 3.18055e-015 -9.54166e-015 -3.18055e-015 -3.18055e-015 -6.36111e-015 -0 1.19664e-006 2.35848e-006 -1.07326e-006 3.18055e-015 -9.54166e-015 -3.18055e-015 0.0129558 0.00231217 -7.45496e-005 -0 0 9.54166e-015 3.18055e-015 -9.54166e-015 -3.18055e-015 0.0163414 0.00303474 -0.000873882 3.18055e-015 3.18055e-015 -6.36111e-015 3.18055e-015 -9.54166e-015 -3.18055e-015 0.014595 0.00368552 -0.00325847 3.18055e-015 3.37033e-006 -3.18055e-015 3.18055e-015 -9.54166e-015 -3.18055e-015 -3.18055e-015 -6.36111e-015 -0 1.19664e-006 2.35848e-006 -1.07326e-006 -54.2584 -12.8966 -69.5543 129.097 47.6337 -89.5447 15.388 61.8433 -23.9427 1.24726e-006 -4.08831e-006 -2.55197e-006 -4.32694 -22.7562 -1.83381 -6.38397 25.3689 11.1954 80.2647 19.7859 -90.6163 1.19271e-015 0 -3.18055e-015 
